<mxfile host="app.diagrams.net" modified="2021-10-24T16:31:56.052Z" agent="5.0 (Macintosh; Intel Mac OS X 10_15_7) AppleWebKit/537.36 (KHTML, like Gecko) Chrome/94.0.4606.81 Safari/537.36" etag="jZHYs56nvW6hPoP3jf0O" version="15.5.7" type="github">
  <diagram id="kgpKYQtTHZ0yAKxKKP6v" name="Page-1">
    <mxGraphModel dx="2066" dy="1105" grid="1" gridSize="10" guides="1" tooltips="1" connect="1" arrows="1" fold="1" page="1" pageScale="1" pageWidth="850" pageHeight="1100" math="0" shadow="0">
      <root>
        <mxCell id="0" />
        <mxCell id="1" parent="0" />
        <mxCell id="_LpkglqAjoNnowStzA4d-25" value="" style="rounded=0;whiteSpace=wrap;html=1;fillColor=#d5e8d4;strokeColor=#82b366;" vertex="1" parent="1">
          <mxGeometry x="710" y="10" width="130" height="530" as="geometry" />
        </mxCell>
        <mxCell id="_LpkglqAjoNnowStzA4d-24" value="" style="rounded=0;whiteSpace=wrap;html=1;fillColor=#dae8fc;strokeColor=#6c8ebf;" vertex="1" parent="1">
          <mxGeometry x="30" y="10" width="680" height="530" as="geometry" />
        </mxCell>
        <mxCell id="3nuBFxr9cyL0pnOWT2aG-1" value=":Duke" style="shape=umlLifeline;perimeter=lifelinePerimeter;container=1;collapsible=0;recursiveResize=0;rounded=0;shadow=0;strokeWidth=1;fillColor=#0050ef;strokeColor=#001DBC;fontColor=#ffffff;" parent="1" vertex="1">
          <mxGeometry x="60" y="70" width="100" height="490" as="geometry" />
        </mxCell>
        <mxCell id="3nuBFxr9cyL0pnOWT2aG-2" value="" style="points=[];perimeter=orthogonalPerimeter;rounded=0;shadow=0;strokeWidth=1;strokeColor=#FF6666;" parent="3nuBFxr9cyL0pnOWT2aG-1" vertex="1">
          <mxGeometry x="45" y="60" width="10" height="390" as="geometry" />
        </mxCell>
        <mxCell id="3nuBFxr9cyL0pnOWT2aG-3" value="&quot;delete 1/2&quot;" style="verticalAlign=bottom;startArrow=oval;endArrow=block;startSize=8;shadow=0;strokeWidth=1;labelBackgroundColor=none;" parent="3nuBFxr9cyL0pnOWT2aG-1" target="3nuBFxr9cyL0pnOWT2aG-2" edge="1">
          <mxGeometry x="0.2632" relative="1" as="geometry">
            <mxPoint x="-50" y="60" as="sourcePoint" />
            <Array as="points">
              <mxPoint x="-10" y="60" />
            </Array>
            <mxPoint as="offset" />
          </mxGeometry>
        </mxCell>
        <mxCell id="3nuBFxr9cyL0pnOWT2aG-5" value=":Parser" style="shape=umlLifeline;perimeter=lifelinePerimeter;container=1;collapsible=0;recursiveResize=0;rounded=0;shadow=0;strokeWidth=1;fillColor=#0050ef;strokeColor=#001DBC;fontColor=#ffffff;" parent="1" vertex="1">
          <mxGeometry x="270" y="90" width="100" height="470" as="geometry" />
        </mxCell>
        <mxCell id="3nuBFxr9cyL0pnOWT2aG-6" value="" style="points=[];perimeter=orthogonalPerimeter;rounded=0;shadow=0;strokeWidth=1;strokeColor=#FF6666;" parent="3nuBFxr9cyL0pnOWT2aG-5" vertex="1">
          <mxGeometry x="45" y="80" width="10" height="180" as="geometry" />
        </mxCell>
        <mxCell id="3nuBFxr9cyL0pnOWT2aG-7" value="" style="verticalAlign=bottom;endArrow=open;dashed=1;endSize=8;exitX=0.1;exitY=1;shadow=0;strokeWidth=1;exitDx=0;exitDy=0;exitPerimeter=0;" parent="1" source="3nuBFxr9cyL0pnOWT2aG-6" target="3nuBFxr9cyL0pnOWT2aG-2" edge="1">
          <mxGeometry relative="1" as="geometry">
            <mxPoint x="245" y="236" as="targetPoint" />
            <Array as="points">
              <mxPoint x="240" y="350" />
            </Array>
          </mxGeometry>
        </mxCell>
        <mxCell id="3nuBFxr9cyL0pnOWT2aG-8" value="getCommand(&quot;delete 1/2&#39;)&quot;" style="verticalAlign=bottom;endArrow=block;entryX=0;entryY=0;shadow=0;strokeWidth=1;labelBackgroundColor=none;" parent="1" source="3nuBFxr9cyL0pnOWT2aG-2" target="3nuBFxr9cyL0pnOWT2aG-6" edge="1">
          <mxGeometry relative="1" as="geometry">
            <mxPoint x="245" y="160" as="sourcePoint" />
          </mxGeometry>
        </mxCell>
        <mxCell id="3nuBFxr9cyL0pnOWT2aG-9" value="new deteteCommand(&quot;delete 1/2&quot;)" style="verticalAlign=bottom;endArrow=block;shadow=0;strokeWidth=1;entryX=0;entryY=0.051;entryDx=0;entryDy=0;entryPerimeter=0;labelBackgroundColor=none;" parent="1" source="3nuBFxr9cyL0pnOWT2aG-6" target="_LpkglqAjoNnowStzA4d-1" edge="1">
          <mxGeometry x="-0.0256" relative="1" as="geometry">
            <mxPoint x="210" y="200" as="sourcePoint" />
            <mxPoint x="230" y="210" as="targetPoint" />
            <Array as="points">
              <mxPoint x="410" y="190" />
              <mxPoint x="500" y="190" />
            </Array>
            <mxPoint as="offset" />
          </mxGeometry>
        </mxCell>
        <mxCell id="3nuBFxr9cyL0pnOWT2aG-10" value="" style="verticalAlign=bottom;endArrow=open;dashed=1;endSize=8;shadow=0;strokeWidth=1;exitX=0.45;exitY=1;exitDx=0;exitDy=0;exitPerimeter=0;" parent="1" source="_LpkglqAjoNnowStzA4d-2" target="3nuBFxr9cyL0pnOWT2aG-6" edge="1">
          <mxGeometry relative="1" as="geometry">
            <mxPoint x="210" y="257" as="targetPoint" />
            <mxPoint x="230" y="286" as="sourcePoint" />
          </mxGeometry>
        </mxCell>
        <mxCell id="_LpkglqAjoNnowStzA4d-1" value=":DeleteCommand" style="shape=umlLifeline;perimeter=lifelinePerimeter;container=1;collapsible=0;recursiveResize=0;rounded=0;shadow=0;strokeWidth=1;fillColor=#0050ef;strokeColor=#001DBC;fontColor=#ffffff;" vertex="1" parent="1">
          <mxGeometry x="520" y="170" width="100" height="390" as="geometry" />
        </mxCell>
        <mxCell id="_LpkglqAjoNnowStzA4d-2" value="" style="points=[];perimeter=orthogonalPerimeter;rounded=0;shadow=0;strokeWidth=1;strokeColor=#FF6666;" vertex="1" parent="_LpkglqAjoNnowStzA4d-1">
          <mxGeometry x="45" y="40" width="10" height="120" as="geometry" />
        </mxCell>
        <mxCell id="_LpkglqAjoNnowStzA4d-3" value="" style="points=[];perimeter=orthogonalPerimeter;rounded=0;shadow=0;strokeWidth=1;strokeColor=#FF6666;" vertex="1" parent="_LpkglqAjoNnowStzA4d-1">
          <mxGeometry x="50" y="70" width="10" height="20" as="geometry" />
        </mxCell>
        <mxCell id="_LpkglqAjoNnowStzA4d-6" value="" style="endArrow=classic;html=1;rounded=0;entryX=1;entryY=0.033;entryDx=0;entryDy=0;entryPerimeter=0;" edge="1" parent="_LpkglqAjoNnowStzA4d-1" target="_LpkglqAjoNnowStzA4d-3">
          <mxGeometry width="50" height="50" relative="1" as="geometry">
            <mxPoint x="55" y="50" as="sourcePoint" />
            <mxPoint x="70" y="70" as="targetPoint" />
            <Array as="points">
              <mxPoint x="80" y="50" />
              <mxPoint x="80" y="60" />
            </Array>
          </mxGeometry>
        </mxCell>
        <mxCell id="_LpkglqAjoNnowStzA4d-11" value="" style="points=[];perimeter=orthogonalPerimeter;rounded=0;shadow=0;strokeWidth=1;strokeColor=#FF6666;" vertex="1" parent="_LpkglqAjoNnowStzA4d-1">
          <mxGeometry x="45" y="210" width="10" height="110" as="geometry" />
        </mxCell>
        <mxCell id="_LpkglqAjoNnowStzA4d-7" value="&lt;span style=&quot;color: rgb(0 , 0 , 0) ; font-family: &amp;#34;helvetica&amp;#34; ; font-size: 11px ; font-style: normal ; font-weight: 400 ; letter-spacing: normal ; text-align: center ; text-indent: 0px ; text-transform: none ; word-spacing: 0px ; display: inline ; float: none&quot;&gt;getPersonIndex(&#39;1/2&#39;)&lt;/span&gt;" style="text;whiteSpace=wrap;html=1;" vertex="1" parent="1">
          <mxGeometry x="600" y="210" width="180" height="30" as="geometry" />
        </mxCell>
        <mxCell id="_LpkglqAjoNnowStzA4d-8" value="" style="points=[];perimeter=orthogonalPerimeter;rounded=0;shadow=0;strokeWidth=1;strokeColor=#FF6666;" vertex="1" parent="1">
          <mxGeometry x="570" y="290" width="10" height="20" as="geometry" />
        </mxCell>
        <mxCell id="_LpkglqAjoNnowStzA4d-9" value="" style="endArrow=classic;html=1;rounded=0;entryX=1;entryY=0.033;entryDx=0;entryDy=0;entryPerimeter=0;" edge="1" parent="1" target="_LpkglqAjoNnowStzA4d-8">
          <mxGeometry width="50" height="50" relative="1" as="geometry">
            <mxPoint x="575" y="270" as="sourcePoint" />
            <mxPoint x="40" y="120" as="targetPoint" />
            <Array as="points">
              <mxPoint x="600" y="270" />
              <mxPoint x="600" y="280" />
            </Array>
          </mxGeometry>
        </mxCell>
        <mxCell id="_LpkglqAjoNnowStzA4d-10" value="&lt;span style=&quot;color: rgb(0 , 0 , 0) ; font-family: &amp;#34;helvetica&amp;#34; ; font-size: 11px ; font-style: normal ; font-weight: 400 ; letter-spacing: normal ; text-align: center ; text-indent: 0px ; text-transform: none ; word-spacing: 0px ; display: inline ; float: none&quot;&gt;getFoodIndex(&#39;1/2&#39;)&lt;/span&gt;" style="text;whiteSpace=wrap;html=1;" vertex="1" parent="1">
          <mxGeometry x="600" y="260" width="180" height="30" as="geometry" />
        </mxCell>
        <mxCell id="_LpkglqAjoNnowStzA4d-12" value="execute()" style="verticalAlign=bottom;endArrow=block;shadow=0;strokeWidth=1;entryX=0;entryY=0;entryDx=0;entryDy=0;entryPerimeter=0;labelBackgroundColor=none;" edge="1" parent="1" source="3nuBFxr9cyL0pnOWT2aG-2" target="_LpkglqAjoNnowStzA4d-11">
          <mxGeometry x="0.2222" relative="1" as="geometry">
            <mxPoint x="120" y="380" as="sourcePoint" />
            <mxPoint x="560" y="380" as="targetPoint" />
            <Array as="points">
              <mxPoint x="220" y="380" />
            </Array>
            <mxPoint as="offset" />
          </mxGeometry>
        </mxCell>
        <mxCell id="_LpkglqAjoNnowStzA4d-13" value="" style="points=[];perimeter=orthogonalPerimeter;rounded=0;shadow=0;strokeWidth=1;strokeColor=#FF6666;" vertex="1" parent="1">
          <mxGeometry x="570" y="410" width="10" height="50" as="geometry" />
        </mxCell>
        <mxCell id="_LpkglqAjoNnowStzA4d-14" value="" style="endArrow=classic;html=1;rounded=0;entryX=1;entryY=0.033;entryDx=0;entryDy=0;entryPerimeter=0;" edge="1" parent="1" target="_LpkglqAjoNnowStzA4d-13">
          <mxGeometry width="50" height="50" relative="1" as="geometry">
            <mxPoint x="575" y="390" as="sourcePoint" />
            <mxPoint x="40" y="240" as="targetPoint" />
            <Array as="points">
              <mxPoint x="600" y="390" />
              <mxPoint x="600" y="400" />
            </Array>
          </mxGeometry>
        </mxCell>
        <mxCell id="_LpkglqAjoNnowStzA4d-15" value="&lt;span style=&quot;color: rgb(0 , 0 , 0) ; font-family: &amp;#34;helvetica&amp;#34; ; font-size: 11px ; font-style: normal ; font-weight: 400 ; letter-spacing: normal ; text-align: center ; text-indent: 0px ; text-transform: none ; word-spacing: 0px ; display: inline ; float: none&quot;&gt;deleteOrder()&lt;/span&gt;" style="text;whiteSpace=wrap;html=1;" vertex="1" parent="1">
          <mxGeometry x="600" y="380" width="180" height="30" as="geometry" />
        </mxCell>
        <mxCell id="_LpkglqAjoNnowStzA4d-20" value="" style="verticalAlign=bottom;endArrow=open;dashed=1;endSize=8;shadow=0;strokeWidth=1;exitX=0.45;exitY=1;exitDx=0;exitDy=0;exitPerimeter=0;" edge="1" parent="1">
          <mxGeometry relative="1" as="geometry">
            <mxPoint x="115" y="490" as="targetPoint" />
            <mxPoint x="564.5" y="490" as="sourcePoint" />
          </mxGeometry>
        </mxCell>
        <mxCell id="_LpkglqAjoNnowStzA4d-18" value="" style="endArrow=classic;html=1;rounded=0;entryX=0;entryY=0.033;entryDx=0;entryDy=0;entryPerimeter=0;" edge="1" parent="1" target="_LpkglqAjoNnowStzA4d-28">
          <mxGeometry width="50" height="50" relative="1" as="geometry">
            <mxPoint x="580" y="424" as="sourcePoint" />
            <mxPoint x="730" y="424" as="targetPoint" />
            <Array as="points">
              <mxPoint x="610" y="424" />
              <mxPoint x="630" y="424" />
            </Array>
          </mxGeometry>
        </mxCell>
        <mxCell id="_LpkglqAjoNnowStzA4d-21" value=":Manager" style="shape=umlLifeline;perimeter=lifelinePerimeter;container=1;collapsible=0;recursiveResize=0;rounded=0;shadow=0;strokeWidth=1;fillColor=#60a917;strokeColor=#2D7600;fontColor=#ffffff;" vertex="1" parent="1">
          <mxGeometry x="720" y="70" width="110" height="490" as="geometry" />
        </mxCell>
        <mxCell id="_LpkglqAjoNnowStzA4d-28" value="" style="points=[];perimeter=orthogonalPerimeter;rounded=0;shadow=0;strokeWidth=1;strokeColor=#FF6666;" vertex="1" parent="_LpkglqAjoNnowStzA4d-21">
          <mxGeometry x="50" y="354" width="10" height="30" as="geometry" />
        </mxCell>
        <mxCell id="_LpkglqAjoNnowStzA4d-26" value="&lt;b&gt;&lt;font style=&quot;font-size: 13px&quot;&gt;Logical&amp;nbsp;&lt;/font&gt;&lt;/b&gt;" style="text;html=1;strokeColor=none;fillColor=none;align=center;verticalAlign=middle;whiteSpace=wrap;rounded=0;" vertex="1" parent="1">
          <mxGeometry x="360" y="10" width="60" height="30" as="geometry" />
        </mxCell>
        <mxCell id="_LpkglqAjoNnowStzA4d-27" value="&lt;b&gt;&lt;font style=&quot;font-size: 13px&quot;&gt;Manager&lt;/font&gt;&lt;/b&gt;" style="text;html=1;strokeColor=none;fillColor=none;align=center;verticalAlign=middle;whiteSpace=wrap;rounded=0;" vertex="1" parent="1">
          <mxGeometry x="745" y="10" width="60" height="30" as="geometry" />
        </mxCell>
        <mxCell id="_LpkglqAjoNnowStzA4d-29" value="" style="verticalAlign=bottom;endArrow=open;dashed=1;endSize=8;shadow=0;strokeWidth=1;" edge="1" parent="1">
          <mxGeometry relative="1" as="geometry">
            <mxPoint x="580" y="454" as="targetPoint" />
            <mxPoint x="770" y="454" as="sourcePoint" />
          </mxGeometry>
        </mxCell>
        <mxCell id="_LpkglqAjoNnowStzA4d-31" value="&lt;div style=&quot;text-align: center&quot;&gt;&lt;span style=&quot;font-size: 11px&quot;&gt;&lt;font face=&quot;helvetica&quot;&gt;deleteParticularOrder(2)&lt;/font&gt;&lt;/span&gt;&lt;/div&gt;" style="text;whiteSpace=wrap;html=1;fontSize=13;" vertex="1" parent="1">
          <mxGeometry x="620" y="400" width="190" height="30" as="geometry" />
        </mxCell>
      </root>
    </mxGraphModel>
  </diagram>
</mxfile>
